# xmcd
#
# Track frame offsets:
#	150
#	10945
#	20365
#	31088
#	41550
#	52598
#	61710
#	72980
#	83965
#	95935
#	105405
#	116505
#	128333
#	142475
#	153020
#	164025
#
# Disc length: 2306 seconds
#
# Revision: 0
# Processed by: cddbd v1.5.2PL0 Copyright (c) Steve Scherf et al.
# Submitted via: audiograbber 1.83.01
#
DISCID=c8090010
DTITLE=The Everly Brothers  - All-Time Original Hits
DYEAR=1999
DGENRE=Pop/Rock
TTITLE0=Bye Bye Love
TTITLE1=Wake Up Little Susie
TTITLE2=All I Have to Do Is Dream
TTITLE3=Bird Dog
TTITLE4=Devoted to You
TTITLE5=Problems
TTITLE6=Take a Message to Mary
TTITLE7=('Til) I Kissed You
TTITLE8=Let It Be Me
TTITLE9=When Will I Be Loved
TTITLE10=Cathy's Clown
TTITLE11=So Sad ( to Watch Good Love Go Bad)
TTITLE12=Ebony Eyes
TTITLE13=Walk Right Back
TTITLE14=That's Old Fashioned (That's the Way Love Shoud Be)
TTITLE15=Crying in the Rain
EXTD=
EXTT0=
EXTT1=
EXTT2=
EXTT3=
EXTT4=
EXTT5=
EXTT6=
EXTT7=
EXTT8=
EXTT9=
EXTT10=
EXTT11=
EXTT12=
EXTT13=
EXTT14=
EXTT15=
PLAYORDER=
